# xmcd CD database file
#
# Track frame offsets:
#        150
#        21328
#        42300
#        63588
#        82444
#        98384
#        123132
#        148367
#        171323
#        190904
#        211051
#
# Disc length: 3035 seconds
#
# Revision: 0
# Processed by: cddbd v1.5.2PL0 Copyright (c) Steve Scherf et al.
# Submitted via: CUERipper 2.1.4
#
DISCID=9f0bd90b
DTITLE=Franco Paletta and The Stingers - I Like It Just Like That
DYEAR=2013
DGENRE=Blues
TTITLE0=Oh Baby
TTITLE1=Born To Please
TTITLE2=When She Do That Thing She Do
TTITLE3=She's My Little Girl
TTITLE4=I Like It Just Like That
TTITLE5=Pretty Baby
TTITLE6=Livin' The Blues Again
TTITLE7=Gypsy Woman
TTITLE8=Red Hot Lovers
TTITLE9=It Brings A Tear
TTITLE10=I Really Want To Sing The Blues
EXTD=
EXTT0=
EXTT1=
EXTT2=
EXTT3=
EXTT4=
EXTT5=
EXTT6=
EXTT7=
EXTT8=
EXTT9=
EXTT10=
PLAYORDER=
